  0
SECTION
  2
HEADER
  9
$ACADVER
  1
AC1009
  9
$DWGCODEPAGE
  3
ansi_1252
  9
$INSBASE
 10
0.0
 20
0.0
 30
0.0
  9
$EXTMIN
 10
-111.905
 20
2.1968
 30
0.0
  9
$EXTMAX
 10
-41.7286
 20
67.1179
 30
0.0
  9
$LIMMIN
 10
0.0
 20
0.0
  9
$LIMMAX
 10
12.0
 20
9.0
  9
$ORTHOMODE
 70
     0
  9
$REGENMODE
 70
     1
  9
$FILLMODE
 70
     1
  9
$QTEXTMODE
 70
     0
  9
$MIRRTEXT
 70
     1
  9
$DRAGMODE
 70
     2
  9
$LTSCALE
 40
1.0
  9
$OSMODE
 70
    37
  9
$ATTMODE
 70
     1
  9
$TEXTSIZE
 40
0.2
  9
$TRACEWID
 40
0.05
  9
$TEXTSTYLE
  7
STANDARD
  9
$CLAYER
  8
0
  9
$CELTYPE
  6
BYLAYER
  9
$CECOLOR
 62
   256
  9
$DIMSCALE
 40
1.0
  9
$DIMASZ
 40
0.18
  9
$DIMEXO
 40
0.0625
  9
$DIMDLI
 40
0.38
  9
$DIMRND
 40
0.0
  9
$DIMDLE
 40
0.0
  9
$DIMEXE
 40
0.18
  9
$DIMTP
 40
0.0
  9
$DIMTM
 40
0.0
  9
$DIMTXT
 40
0.18
  9
$DIMCEN
 40
0.09
  9
$DIMTSZ
 40
0.0
  9
$DIMTOL
 70
     0
  9
$DIMLIM
 70
     0
  9
$DIMTIH
 70
     1
  9
$DIMTOH
 70
     1
  9
$DIMSE1
 70
     0
  9
$DIMSE2
 70
     0
  9
$DIMTAD
 70
     0
  9
$DIMZIN
 70
     0
  9
$DIMBLK
  1

  9
$DIMASO
 70
     1
  9
$DIMSHO
 70
     1
  9
$DIMPOST
  1

  9
$DIMAPOST
  1

  9
$DIMALT
 70
     0
  9
$DIMALTD
 70
     2
  9
$DIMALTF
 40
25.4
  9
$DIMLFAC
 40
1.0
  9
$DIMTOFL
 70
     0
  9
$DIMTVP
 40
0.0
  9
$DIMTIX
 70
     0
  9
$DIMSOXD
 70
     0
  9
$DIMSAH
 70
     0
  9
$DIMBLK1
  1

  9
$DIMBLK2
  1

  9
$DIMSTYLE
  2
STANDARD
  9
$DIMCLRD
 70
     0
  9
$DIMCLRE
 70
     0
  9
$DIMCLRT
 70
     0
  9
$DIMTFAC
 40
1.0
  9
$DIMGAP
 40
0.09
  9
$LUNITS
 70
     2
  9
$LUPREC
 70
     4
  9
$SKETCHINC
 40
0.1
  9
$FILLETRAD
 40
0.0
  9
$AUNITS
 70
     0
  9
$AUPREC
 70
     0
  9
$MENU
  1
.
  9
$ELEVATION
 40
0.0
  9
$PELEVATION
 40
0.0
  9
$THICKNESS
 40
0.0
  9
$LIMCHECK
 70
     0
  9
$CHAMFERA
 40
0.0
  9
$CHAMFERB
 40
0.0
  9
$SKPOLY
 70
     0
  9
$TDCREATE
 40
2460412.965583507
  9
$TDUPDATE
 40
2460412.96558375
  9
$TDINDWG
 40
0.0000000116
  9
$TDUSRTIMER
 40
0.0000000116
  9
$USRTIMER
 70
     1
  9
$ANGBASE
 50
0.0
  9
$ANGDIR
 70
     0
  9
$PDMODE
 70
     0
  9
$PDSIZE
 40
0.0
  9
$PLINEWID
 40
0.0
  9
$COORDS
 70
     1
  9
$SPLFRAME
 70
     0
  9
$SPLINETYPE
 70
     6
  9
$SPLINESEGS
 70
     8
  9
$ATTDIA
 70
     0
  9
$ATTREQ
 70
     1
  9
$HANDLING
 70
     1
  9
$HANDSEED
  5
1C2
  9
$SURFTAB1
 70
     6
  9
$SURFTAB2
 70
     6
  9
$SURFTYPE
 70
     6
  9
$SURFU
 70
     6
  9
$SURFV
 70
     6
  9
$UCSNAME
  2

  9
$UCSORG
 10
0.0
 20
0.0
 30
0.0
  9
$UCSXDIR
 10
1.0
 20
0.0
 30
0.0
  9
$UCSYDIR
 10
0.0
 20
1.0
 30
0.0
  9
$PUCSNAME
  2

  9
$PUCSORG
 10
0.0
 20
0.0
 30
0.0
  9
$PUCSXDIR
 10
1.0
 20
0.0
 30
0.0
  9
$PUCSYDIR
 10
0.0
 20
1.0
 30
0.0
  9
$USERI1
 70
     0
  9
$USERI2
 70
     0
  9
$USERI3
 70
     0
  9
$USERI4
 70
     0
  9
$USERI5
 70
     0
  9
$USERR1
 40
0.0
  9
$USERR2
 40
0.0
  9
$USERR3
 40
0.0
  9
$USERR4
 40
0.0
  9
$USERR5
 40
0.0
  9
$WORLDVIEW
 70
     1
  9
$SHADEDGE
 70
     3
  9
$SHADEDIF
 70
    70
  9
$TILEMODE
 70
     1
  9
$MAXACTVP
 70
    64
  9
$PLIMCHECK
 70
     0
  9
$PEXTMIN
 10
1.000000000000000E+20
 20
1.000000000000000E+20
 30
1.000000000000000E+20
  9
$PEXTMAX
 10
-1.000000000000000E+20
 20
-1.000000000000000E+20
 30
-1.000000000000000E+20
  9
$PLIMMIN
 10
0.0
 20
0.0
  9
$PLIMMAX
 10
12.0
 20
9.0
  9
$UNITMODE
 70
     0
  9
$VISRETAIN
 70
     1
  9
$PLINEGEN
 70
     0
  9
$PSLTSCALE
 70
     1
  0
ENDSEC
  0
SECTION
  2
TABLES
  0
TABLE
  2
VPORT
 70
     1
  0
VPORT
  2
*ACTIVE
 70
     0
 10
0.0
 20
0.0
 11
1.0
 21
1.0
 12
10.42990654205607
 22
4.5
 13
0.0
 23
0.0
 14
0.5
 24
0.5
 15
0.5
 25
0.5
 16
0.0
 26
0.0
 36
1.0
 17
0.0
 27
0.0
 37
0.0
 40
9.0
 41
1.972972972850329
 42
50.0
 43
0.0
 44
0.0
 50
0.0
 51
0.0
 71
     0
 72
   100
 73
     1
 74
     3
 75
     0
 76
     0
 77
     0
 78
     0
  0
ENDTAB
  0
TABLE
  2
LTYPE
 70
     5
  0
LTYPE
  2
CONTINUOUS
 70
     0
  3
Solid line
 72
    65
 73
     0
 40
0.0
  0
LTYPE
  2
NEW_LINE1
 70
     0
  3

 72
    65
 73
     2
 40
0.5
 49
0.2
 49
-0.3
  0
LTYPE
  2
NEW_LINE2
 70
     0
  3

 72
    65
 73
     2
 40
0.5
 49
0.2
 49
-0.3
  0
LTYPE
  2
NEW_LINE3
 70
     0
  3

 72
    65
 73
     2
 40
0.5
 49
0.2
 49
-0.3
  0
LTYPE
  2
NEW_LINE4
 70
     0
  3

 72
    65
 73
     2
 40
0.5
 49
0.2
 49
-0.3
  0
ENDTAB
  0
TABLE
  2
LAYER
 70
     2
  0
LAYER
  2
0
 70
     0
 62
     7
  6
CONTINUOUS
  0
LAYER
  2
LAYER_1
 70
     0
 62
     7
  6
CONTINUOUS
  0
ENDTAB
  0
TABLE
  2
STYLE
 70
     1
  0
STYLE
  2
STANDARD
 70
     0
 40
0.0
 41
1.0
 50
0.0
 71
     0
 42
0.2
  3
txt
  4

  0
ENDTAB
  0
TABLE
  2
VIEW
 70
     0
  0
ENDTAB
  0
TABLE
  2
UCS
 70
     0
  0
ENDTAB
  0
TABLE
  2
APPID
 70
     2
  0
APPID
  2
ACAD
 70
     0
  0
APPID
  2
ODA
 70
     0
  0
ENDTAB
  0
TABLE
  2
DIMSTYLE
 70
     1
  0
DIMSTYLE
  2
STANDARD
 70
     0
  3

  4

  5

  6

  7

 40
1.0
 41
0.18
 42
0.0625
 43
0.38
 44
0.18
 45
0.0
 46
0.0
 47
0.0
 48
0.0
140
0.18
141
0.09
142
0.0
143
25.4
144
1.0
145
0.0
146
1.0
147
0.09
 71
     0
 72
     0
 73
     1
 74
     1
 75
     0
 76
     0
 77
     0
 78
     0
170
     0
171
     2
172
     0
173
     0
174
     0
175
     0
176
     0
177
     0
178
     0
  0
ENDTAB
  0
ENDSEC
  0
SECTION
  2
BLOCKS
  0
BLOCK
  8
0
  2
$MODEL_SPACE
 70
     0
 10
0.0
 20
0.0
 30
0.0
  3
$MODEL_SPACE
  1

  0
ENDBLK
  5
21
  8
0
  0
BLOCK
 67
     1
  8
0
  2
$PAPER_SPACE
 70
     0
 10
0.0
 20
0.0
 30
0.0
  3
$PAPER_SPACE
  1

  0
ENDBLK
  5
1D
 67
     1
  8
0
  0
ENDSEC
  0
SECTION
  2
ENTITIES
  0
POLYLINE
  5
60
  8
LAYER_1
 62
   250
 66
     1
 10
0.0
 20
0.0
 30
0.0
 70
     1
  0
VERTEX
  5
7C
  8
LAYER_1
 62
   250
 10
-108.6637
 20
67.0297
 30
0.0
  0
VERTEX
  5
7D
  8
LAYER_1
 62
   250
 10
-44.9699
 20
67.0297
 30
0.0
  0
VERTEX
  5
7E
  8
LAYER_1
 62
   250
 10
-44.3365
 20
66.9653
 30
0.0
  0
VERTEX
  5
7F
  8
LAYER_1
 62
   250
 10
-43.7456
 20
66.7809
 30
0.0
  0
VERTEX
  5
80
  8
LAYER_1
 62
   250
 10
-43.2101
 20
66.4893
 30
0.0
  0
VERTEX
  5
81
  8
LAYER_1
 62
   250
 10
-42.743
 20
66.1035
 30
0.0
  0
VERTEX
  5
82
  8
LAYER_1
 62
   250
 10
-42.3572
 20
65.6364
 30
0.0
  0
VERTEX
  5
83
  8
LAYER_1
 62
   250
 10
-42.0656
 20
65.1009
 30
0.0
  0
VERTEX
  5
84
  8
LAYER_1
 62
   250
 10
-41.8812
 20
64.51
 30
0.0
  0
VERTEX
  5
85
  8
LAYER_1
 62
   250
 10
-41.8168
 20
63.8766
 30
0.0
  0
VERTEX
  5
86
  8
LAYER_1
 62
   250
 10
-41.8168
 20
5.4381
 30
0.0
  0
VERTEX
  5
87
  8
LAYER_1
 62
   250
 10
-41.8812
 20
4.8047
 30
0.0
  0
VERTEX
  5
88
  8
LAYER_1
 62
   250
 10
-42.0656
 20
4.2138
 30
0.0
  0
VERTEX
  5
89
  8
LAYER_1
 62
   250
 10
-42.3572
 20
3.6783
 30
0.0
  0
VERTEX
  5
8A
  8
LAYER_1
 62
   250
 10
-42.743
 20
3.2112
 30
0.0
  0
VERTEX
  5
8B
  8
LAYER_1
 62
   250
 10
-43.2101
 20
2.8254
 30
0.0
  0
VERTEX
  5
8C
  8
LAYER_1
 62
   250
 10
-43.7456
 20
2.5338
 30
0.0
  0
VERTEX
  5
8D
  8
LAYER_1
 62
   250
 10
-44.3365
 20
2.3494
 30
0.0
  0
VERTEX
  5
8E
  8
LAYER_1
 62
   250
 10
-44.9699
 20
2.285
 30
0.0
  0
VERTEX
  5
8F
  8
LAYER_1
 62
   250
 10
-108.6637
 20
2.285
 30
0.0
  0
VERTEX
  5
90
  8
LAYER_1
 62
   250
 10
-109.2971
 20
2.3494
 30
0.0
  0
VERTEX
  5
91
  8
LAYER_1
 62
   250
 10
-109.888
 20
2.5338
 30
0.0
  0
VERTEX
  5
92
  8
LAYER_1
 62
   250
 10
-110.4235
 20
2.8254
 30
0.0
  0
VERTEX
  5
93
  8
LAYER_1
 62
   250
 10
-110.8906
 20
3.2112
 30
0.0
  0
VERTEX
  5
94
  8
LAYER_1
 62
   250
 10
-111.2764
 20
3.6783
 30
0.0
  0
VERTEX
  5
95
  8
LAYER_1
 62
   250
 10
-111.568
 20
4.2138
 30
0.0
  0
VERTEX
  5
96
  8
LAYER_1
 62
   250
 10
-111.7524
 20
4.8047
 30
0.0
  0
VERTEX
  5
97
  8
LAYER_1
 62
   250
 10
-111.8168
 20
5.4381
 30
0.0
  0
VERTEX
  5
98
  8
LAYER_1
 62
   250
 10
-111.8168
 20
63.8766
 30
0.0
  0
VERTEX
  5
99
  8
LAYER_1
 62
   250
 10
-111.7524
 20
64.51
 30
0.0
  0
VERTEX
  5
9A
  8
LAYER_1
 62
   250
 10
-111.568
 20
65.1009
 30
0.0
  0
VERTEX
  5
9B
  8
LAYER_1
 62
   250
 10
-111.2764
 20
65.6364
 30
0.0
  0
VERTEX
  5
9C
  8
LAYER_1
 62
   250
 10
-110.8906
 20
66.1035
 30
0.0
  0
VERTEX
  5
9D
  8
LAYER_1
 62
   250
 10
-110.4235
 20
66.4893
 30
0.0
  0
VERTEX
  5
9E
  8
LAYER_1
 62
   250
 10
-109.888
 20
66.7809
 30
0.0
  0
VERTEX
  5
9F
  8
LAYER_1
 62
   250
 10
-109.2971
 20
66.9653
 30
0.0
  0
VERTEX
  5
A0
  8
LAYER_1
 62
   250
 10
-108.6637
 20
67.0297
 30
0.0
  0
SEQEND
  5
1B1
  8
LAYER_1
 62
   250
  0
POLYLINE
  5
61
  8
LAYER_1
  6
NEW_LINE1
 62
   250
 66
     1
 10
0.0
 20
0.0
 30
0.0
 70
     1
  0
VERTEX
  5
A1
  8
LAYER_1
  6
NEW_LINE1
 62
   250
 10
-107.0668
 20
65.4573
 30
0.0
  0
VERTEX
  5
A2
  8
LAYER_1
  6
NEW_LINE1
 62
   250
 10
-107.6618254821492
 20
65.39869510522985
 30
0.0
  0
VERTEX
  5
A3
  8
LAYER_1
  6
NEW_LINE1
 62
   250
 10
-108.2339844687135
 20
65.22513257415942
 30
0.0
  0
VERTEX
  5
A4
  8
LAYER_1
  6
NEW_LINE1
 62
   250
 10
-108.7612892107098
 20
64.94328231752276
 30
0.0
  0
VERTEX
  5
A5
  8
LAYER_1
  6
NEW_LINE1
 62
   250
 10
-109.223475682619
 20
64.56397568261897
 30
0.0
  0
VERTEX
  5
A6
  8
LAYER_1
  6
NEW_LINE1
 62
   250
 10
-109.6027823175228
 20
64.10178921070978
 30
0.0
  0
VERTEX
  5
A7
  8
LAYER_1
  6
NEW_LINE1
 62
   250
 10
-109.8846325741594
 20
63.57448446871352
 30
0.0
  0
VERTEX
  5
A8
  8
LAYER_1
  6
NEW_LINE1
 62
   250
 10
-110.0581951052299
 20
63.00232548214919
 30
0.0
  0
VERTEX
  5
A9
  8
LAYER_1
  6
NEW_LINE1
 62
   250
 10
-110.1168
 20
62.4073
 30
0.0
  0
VERTEX
  5
AA
  8
LAYER_1
  6
NEW_LINE1
 62
   250
 10
-110.0581951052299
 20
61.81227451785081
 30
0.0
  0
VERTEX
  5
AB
  8
LAYER_1
  6
NEW_LINE1
 62
   250
 10
-109.8846325741594
 20
61.24011553128648
 30
0.0
  0
VERTEX
  5
AC
  8
LAYER_1
  6
NEW_LINE1
 62
   250
 10
-109.6027823175228
 20
60.71281078929022
 30
0.0
  0
VERTEX
  5
AD
  8
LAYER_1
  6
NEW_LINE1
 62
   250
 10
-109.223475682619
 20
60.25062431738103
 30
0.0
  0
VERTEX
  5
AE
  8
LAYER_1
  6
NEW_LINE1
 62
   250
 10
-108.7612892107098
 20
59.87131768247723
 30
0.0
  0
VERTEX
  5
AF
  8
LAYER_1
  6
NEW_LINE1
 62
   250
 10
-108.2339844687135
 20
59.58946742584057
 30
0.0
  0
VERTEX
  5
B0
  8
LAYER_1
  6
NEW_LINE1
 62
   250
 10
-107.6618254821492
 20
59.41590489477014
 30
0.0
  0
VERTEX
  5
B1
  8
LAYER_1
  6
NEW_LINE1
 62
   250
 10
-107.0668
 20
59.3573
 30
0.0
  0
VERTEX
  5
B2
  8
LAYER_1
  6
NEW_LINE1
 62
   250
 10
-106.4717745178508
 20
59.41590489477015
 30
0.0
  0
VERTEX
  5
B3
  8
LAYER_1
  6
NEW_LINE1
 62
   250
 10
-105.8996155312865
 20
59.58946742584057
 30
0.0
  0
VERTEX
  5
B4
  8
LAYER_1
  6
NEW_LINE1
 62
   250
 10
-105.3723107892902
 20
59.87131768247724
 30
0.0
  0
VERTEX
  5
B5
  8
LAYER_1
  6
NEW_LINE1
 62
   250
 10
-104.910124317381
 20
60.25062431738103
 30
0.0
  0
VERTEX
  5
B6
  8
LAYER_1
  6
NEW_LINE1
 62
   250
 10
-104.5308176824772
 20
60.71281078929022
 30
0.0
  0
VERTEX
  5
B7
  8
LAYER_1
  6
NEW_LINE1
 62
   250
 10
-104.2489674258406
 20
61.24011553128648
 30
0.0
  0
VERTEX
  5
B8
  8
LAYER_1
  6
NEW_LINE1
 62
   250
 10
-104.0754048947701
 20
61.81227451785082
 30
0.0
  0
VERTEX
  5
B9
  8
LAYER_1
  6
NEW_LINE1
 62
   250
 10
-104.0168
 20
62.40730000000001
 30
0.0
  0
VERTEX
  5
BA
  8
LAYER_1
  6
NEW_LINE1
 62
   250
 10
-104.0754048947701
 20
63.0023254821492
 30
0.0
  0
VERTEX
  5
BB
  8
LAYER_1
  6
NEW_LINE1
 62
   250
 10
-104.2489674258406
 20
63.57448446871353
 30
0.0
  0
VERTEX
  5
BC
  8
LAYER_1
  6
NEW_LINE1
 62
   250
 10
-104.5308176824772
 20
64.1017892107098
 30
0.0
  0
VERTEX
  5
BD
  8
LAYER_1
  6
NEW_LINE1
 62
   250
 10
-104.910124317381
 20
64.56397568261897
 30
0.0
  0
VERTEX
  5
BE
  8
LAYER_1
  6
NEW_LINE1
 62
   250
 10
-105.3723107892902
 20
64.94328231752277
 30
0.0
  0
VERTEX
  5
BF
  8
LAYER_1
  6
NEW_LINE1
 62
   250
 10
-105.8996155312865
 20
65.22513257415943
 30
0.0
  0
VERTEX
  5
C0
  8
LAYER_1
  6
NEW_LINE1
 62
   250
 10
-106.4717745178508
 20
65.39869510522985
 30
0.0
  0
SEQEND
  5
1B2
  8
LAYER_1
  6
NEW_LINE1
 62
   250
  0
POLYLINE
  5
63
  8
LAYER_1
  6
NEW_LINE2
 62
   250
 66
     1
 10
0.0
 20
0.0
 30
0.0
 70
     1
  0
VERTEX
  5
C1
  8
LAYER_1
  6
NEW_LINE2
 62
   250
 10
-46.5668
 20
65.4573
 30
0.0
  0
VERTEX
  5
C2
  8
LAYER_1
  6
NEW_LINE2
 62
   250
 10
-47.16182548214919
 20
65.39869510522985
 30
0.0
  0
VERTEX
  5
C3
  8
LAYER_1
  6
NEW_LINE2
 62
   250
 10
-47.73398446871352
 20
65.22513257415942
 30
0.0
  0
VERTEX
  5
C4
  8
LAYER_1
  6
NEW_LINE2
 62
   250
 10
-48.26128921070979
 20
64.94328231752276
 30
0.0
  0
VERTEX
  5
C5
  8
LAYER_1
  6
NEW_LINE2
 62
   250
 10
-48.72347568261897
 20
64.56397568261897
 30
0.0
  0
VERTEX
  5
C6
  8
LAYER_1
  6
NEW_LINE2
 62
   250
 10
-49.10278231752277
 20
64.10178921070978
 30
0.0
  0
VERTEX
  5
C7
  8
LAYER_1
  6
NEW_LINE2
 62
   250
 10
-49.38463257415943
 20
63.57448446871352
 30
0.0
  0
VERTEX
  5
C8
  8
LAYER_1
  6
NEW_LINE2
 62
   250
 10
-49.55819510522986
 20
63.00232548214919
 30
0.0
  0
VERTEX
  5
C9
  8
LAYER_1
  6
NEW_LINE2
 62
   250
 10
-49.6168
 20
62.4073
 30
0.0
  0
VERTEX
  5
CA
  8
LAYER_1
  6
NEW_LINE2
 62
   250
 10
-49.55819510522986
 20
61.81227451785081
 30
0.0
  0
VERTEX
  5
CB
  8
LAYER_1
  6
NEW_LINE2
 62
   250
 10
-49.38463257415943
 20
61.24011553128648
 30
0.0
  0
VERTEX
  5
CC
  8
LAYER_1
  6
NEW_LINE2
 62
   250
 10
-49.10278231752277
 20
60.71281078929022
 30
0.0
  0
VERTEX
  5
CD
  8
LAYER_1
  6
NEW_LINE2
 62
   250
 10
-48.72347568261897
 20
60.25062431738103
 30
0.0
  0
VERTEX
  5
CE
  8
LAYER_1
  6
NEW_LINE2
 62
   250
 10
-48.26128921070979
 20
59.87131768247723
 30
0.0
  0
VERTEX
  5
CF
  8
LAYER_1
  6
NEW_LINE2
 62
   250
 10
-47.73398446871352
 20
59.58946742584057
 30
0.0
  0
VERTEX
  5
D0
  8
LAYER_1
  6
NEW_LINE2
 62
   250
 10
-47.16182548214919
 20
59.41590489477014
 30
0.0
  0
VERTEX
  5
D1
  8
LAYER_1
  6
NEW_LINE2
 62
   250
 10
-46.5668
 20
59.3573
 30
0.0
  0
VERTEX
  5
D2
  8
LAYER_1
  6
NEW_LINE2
 62
   250
 10
-45.9717745178508
 20
59.41590489477015
 30
0.0
  0
VERTEX
  5
D3
  8
LAYER_1
  6
NEW_LINE2
 62
   250
 10
-45.39961553128647
 20
59.58946742584057
 30
0.0
  0
VERTEX
  5
D4
  8
LAYER_1
  6
NEW_LINE2
 62
   250
 10
-44.87231078929021
 20
59.87131768247724
 30
0.0
  0
VERTEX
  5
D5
  8
LAYER_1
  6
NEW_LINE2
 62
   250
 10
-44.41012431738103
 20
60.25062431738103
 30
0.0
  0
VERTEX
  5
D6
  8
LAYER_1
  6
NEW_LINE2
 62
   250
 10
-44.03081768247723
 20
60.71281078929022
 30
0.0
  0
VERTEX
  5
D7
  8
LAYER_1
  6
NEW_LINE2
 62
   250
 10
-43.74896742584058
 20
61.24011553128648
 30
0.0
  0
VERTEX
  5
D8
  8
LAYER_1
  6
NEW_LINE2
 62
   250
 10
-43.57540489477014
 20
61.81227451785082
 30
0.0
  0
VERTEX
  5
D9
  8
LAYER_1
  6
NEW_LINE2
 62
   250
 10
-43.5168
 20
62.40730000000001
 30
0.0
  0
VERTEX
  5
DA
  8
LAYER_1
  6
NEW_LINE2
 62
   250
 10
-43.57540489477015
 20
63.0023254821492
 30
0.0
  0
VERTEX
  5
DB
  8
LAYER_1
  6
NEW_LINE2
 62
   250
 10
-43.74896742584058
 20
63.57448446871353
 30
0.0
  0
VERTEX
  5
DC
  8
LAYER_1
  6
NEW_LINE2
 62
   250
 10
-44.03081768247724
 20
64.1017892107098
 30
0.0
  0
VERTEX
  5
DD
  8
LAYER_1
  6
NEW_LINE2
 62
   250
 10
-44.41012431738104
 20
64.56397568261897
 30
0.0
  0
VERTEX
  5
DE
  8
LAYER_1
  6
NEW_LINE2
 62
   250
 10
-44.87231078929022
 20
64.94328231752277
 30
0.0
  0
VERTEX
  5
DF
  8
LAYER_1
  6
NEW_LINE2
 62
   250
 10
-45.39961553128649
 20
65.22513257415943
 30
0.0
  0
VERTEX
  5
E0
  8
LAYER_1
  6
NEW_LINE2
 62
   250
 10
-45.97177451785082
 20
65.39869510522985
 30
0.0
  0
SEQEND
  5
1B3
  8
LAYER_1
  6
NEW_LINE2
 62
   250
  0
POLYLINE
  5
65
  8
LAYER_1
  6
NEW_LINE3
 62
   250
 66
     1
 10
0.0
 20
0.0
 30
0.0
 70
     1
  0
VERTEX
  5
E1
  8
LAYER_1
  6
NEW_LINE3
 62
   250
 10
-46.5668
 20
9.9573
 30
0.0
  0
VERTEX
  5
E2
  8
LAYER_1
  6
NEW_LINE3
 62
   250
 10
-47.16182548214919
 20
9.898695105229853
 30
0.0
  0
VERTEX
  5
E3
  8
LAYER_1
  6
NEW_LINE3
 62
   250
 10
-47.73398446871352
 20
9.725132574159424
 30
0.0
  0
VERTEX
  5
E4
  8
LAYER_1
  6
NEW_LINE3
 62
   250
 10
-48.26128921070979
 20
9.443282317522764
 30
0.0
  0
VERTEX
  5
E5
  8
LAYER_1
  6
NEW_LINE3
 62
   250
 10
-48.72347568261897
 20
9.06397568261897
 30
0.0
  0
VERTEX
  5
E6
  8
LAYER_1
  6
NEW_LINE3
 62
   250
 10
-49.10278231752277
 20
8.601789210709788
 30
0.0
  0
VERTEX
  5
E7
  8
LAYER_1
  6
NEW_LINE3
 62
   250
 10
-49.38463257415943
 20
8.074484468713525
 30
0.0
  0
VERTEX
  5
E8
  8
LAYER_1
  6
NEW_LINE3
 62
   250
 10
-49.55819510522986
 20
7.502325482149192
 30
0.0
  0
VERTEX
  5
E9
  8
LAYER_1
  6
NEW_LINE3
 62
   250
 10
-49.6168
 20
6.9073
 30
0.0
  0
VERTEX
  5
EA
  8
LAYER_1
  6
NEW_LINE3
 62
   250
 10
-49.55819510522986
 20
6.31227451785081
 30
0.0
  0
VERTEX
  5
EB
  8
LAYER_1
  6
NEW_LINE3
 62
   250
 10
-49.38463257415943
 20
5.740115531286476
 30
0.0
  0
VERTEX
  5
EC
  8
LAYER_1
  6
NEW_LINE3
 62
   250
 10
-49.10278231752277
 20
5.212810789290215
 30
0.0
  0
VERTEX
  5
ED
  8
LAYER_1
  6
NEW_LINE3
 62
   250
 10
-48.72347568261897
 20
4.75062431738103
 30
0.0
  0
VERTEX
  5
EE
  8
LAYER_1
  6
NEW_LINE3
 62
   250
 10
-48.26128921070979
 20
4.371317682477237
 30
0.0
  0
VERTEX
  5
EF
  8
LAYER_1
  6
NEW_LINE3
 62
   250
 10
-47.73398446871352
 20
4.089467425840576
 30
0.0
  0
VERTEX
  5
F0
  8
LAYER_1
  6
NEW_LINE3
 62
   250
 10
-47.16182548214919
 20
3.915904894770147
 30
0.0
  0
VERTEX
  5
F1
  8
LAYER_1
  6
NEW_LINE3
 62
   250
 10
-46.5668
 20
3.8573
 30
0.0
  0
VERTEX
  5
F2
  8
LAYER_1
  6
NEW_LINE3
 62
   250
 10
-45.9717745178508
 20
3.915904894770148
 30
0.0
  0
VERTEX
  5
F3
  8
LAYER_1
  6
NEW_LINE3
 62
   250
 10
-45.39961553128647
 20
4.089467425840577
 30
0.0
  0
VERTEX
  5
F4
  8
LAYER_1
  6
NEW_LINE3
 62
   250
 10
-44.87231078929021
 20
4.37131768247724
 30
0.0
  0
VERTEX
  5
F5
  8
LAYER_1
  6
NEW_LINE3
 62
   250
 10
-44.41012431738103
 20
4.750624317381034
 30
0.0
  0
VERTEX
  5
F6
  8
LAYER_1
  6
NEW_LINE3
 62
   250
 10
-44.03081768247723
 20
5.212810789290218
 30
0.0
  0
VERTEX
  5
F7
  8
LAYER_1
  6
NEW_LINE3
 62
   250
 10
-43.74896742584058
 20
5.740115531286483
 30
0.0
  0
VERTEX
  5
F8
  8
LAYER_1
  6
NEW_LINE3
 62
   250
 10
-43.57540489477014
 20
6.312274517850816
 30
0.0
  0
VERTEX
  5
F9
  8
LAYER_1
  6
NEW_LINE3
 62
   250
 10
-43.5168
 20
6.907300000000008
 30
0.0
  0
VERTEX
  5
FA
  8
LAYER_1
  6
NEW_LINE3
 62
   250
 10
-43.57540489477015
 20
7.5023254821492
 30
0.0
  0
VERTEX
  5
FB
  8
LAYER_1
  6
NEW_LINE3
 62
   250
 10
-43.74896742584058
 20
8.074484468713532
 30
0.0
  0
VERTEX
  5
FC
  8
LAYER_1
  6
NEW_LINE3
 62
   250
 10
-44.03081768247724
 20
8.601789210709795
 30
0.0
  0
VERTEX
  5
FD
  8
LAYER_1
  6
NEW_LINE3
 62
   250
 10
-44.41012431738104
 20
9.063975682618977
 30
0.0
  0
VERTEX
  5
FE
  8
LAYER_1
  6
NEW_LINE3
 62
   250
 10
-44.87231078929022
 20
9.443282317522769
 30
0.0
  0
VERTEX
  5
FF
  8
LAYER_1
  6
NEW_LINE3
 62
   250
 10
-45.39961553128649
 20
9.72513257415943
 30
0.0
  0
VERTEX
  5
100
  8
LAYER_1
  6
NEW_LINE3
 62
   250
 10
-45.97177451785082
 20
9.898695105229855
 30
0.0
  0
SEQEND
  5
1B4
  8
LAYER_1
  6
NEW_LINE3
 62
   250
  0
POLYLINE
  5
67
  8
LAYER_1
  6
NEW_LINE4
 62
   250
 66
     1
 10
0.0
 20
0.0
 30
0.0
 70
     1
  0
VERTEX
  5
101
  8
LAYER_1
  6
NEW_LINE4
 62
   250
 10
-107.0668
 20
9.9573
 30
0.0
  0
VERTEX
  5
102
  8
LAYER_1
  6
NEW_LINE4
 62
   250
 10
-107.6618254821492
 20
9.898695105229853
 30
0.0
  0
VERTEX
  5
103
  8
LAYER_1
  6
NEW_LINE4
 62
   250
 10
-108.2339844687135
 20
9.725132574159424
 30
0.0
  0
VERTEX
  5
104
  8
LAYER_1
  6
NEW_LINE4
 62
   250
 10
-108.7612892107098
 20
9.443282317522764
 30
0.0
  0
VERTEX
  5
105
  8
LAYER_1
  6
NEW_LINE4
 62
   250
 10
-109.223475682619
 20
9.06397568261897
 30
0.0
  0
VERTEX
  5
106
  8
LAYER_1
  6
NEW_LINE4
 62
   250
 10
-109.6027823175228
 20
8.601789210709788
 30
0.0
  0
VERTEX
  5
107
  8
LAYER_1
  6
NEW_LINE4
 62
   250
 10
-109.8846325741594
 20
8.074484468713525
 30
0.0
  0
VERTEX
  5
108
  8
LAYER_1
  6
NEW_LINE4
 62
   250
 10
-110.0581951052299
 20
7.502325482149192
 30
0.0
  0
VERTEX
  5
109
  8
LAYER_1
  6
NEW_LINE4
 62
   250
 10
-110.1168
 20
6.9073
 30
0.0
  0
VERTEX
  5
10A
  8
LAYER_1
  6
NEW_LINE4
 62
   250
 10
-110.0581951052299
 20
6.31227451785081
 30
0.0
  0
VERTEX
  5
10B
  8
LAYER_1
  6
NEW_LINE4
 62
   250
 10
-109.8846325741594
 20
5.740115531286476
 30
0.0
  0
VERTEX
  5
10C
  8
LAYER_1
  6
NEW_LINE4
 62
   250
 10
-109.6027823175228
 20
5.212810789290215
 30
0.0
  0
VERTEX
  5
10D
  8
LAYER_1
  6
NEW_LINE4
 62
   250
 10
-109.223475682619
 20
4.75062431738103
 30
0.0
  0
VERTEX
  5
10E
  8
LAYER_1
  6
NEW_LINE4
 62
   250
 10
-108.7612892107098
 20
4.371317682477237
 30
0.0
  0
VERTEX
  5
10F
  8
LAYER_1
  6
NEW_LINE4
 62
   250
 10
-108.2339844687135
 20
4.089467425840576
 30
0.0
  0
VERTEX
  5
110
  8
LAYER_1
  6
NEW_LINE4
 62
   250
 10
-107.6618254821492
 20
3.915904894770147
 30
0.0
  0
VERTEX
  5
111
  8
LAYER_1
  6
NEW_LINE4
 62
   250
 10
-107.0668
 20
3.8573
 30
0.0
  0
VERTEX
  5
112
  8
LAYER_1
  6
NEW_LINE4
 62
   250
 10
-106.4717745178508
 20
3.915904894770148
 30
0.0
  0
VERTEX
  5
113
  8
LAYER_1
  6
NEW_LINE4
 62
   250
 10
-105.8996155312865
 20
4.089467425840577
 30
0.0
  0
VERTEX
  5
114
  8
LAYER_1
  6
NEW_LINE4
 62
   250
 10
-105.3723107892902
 20
4.37131768247724
 30
0.0
  0
VERTEX
  5
115
  8
LAYER_1
  6
NEW_LINE4
 62
   250
 10
-104.910124317381
 20
4.750624317381034
 30
0.0
  0
VERTEX
  5
116
  8
LAYER_1
  6
NEW_LINE4
 62
   250
 10
-104.5308176824772
 20
5.212810789290218
 30
0.0
  0
VERTEX
  5
117
  8
LAYER_1
  6
NEW_LINE4
 62
   250
 10
-104.2489674258406
 20
5.740115531286483
 30
0.0
  0
VERTEX
  5
118
  8
LAYER_1
  6
NEW_LINE4
 62
   250
 10
-104.0754048947701
 20
6.312274517850816
 30
0.0
  0
VERTEX
  5
119
  8
LAYER_1
  6
NEW_LINE4
 62
   250
 10
-104.0168
 20
6.907300000000008
 30
0.0
  0
VERTEX
  5
11A
  8
LAYER_1
  6
NEW_LINE4
 62
   250
 10
-104.0754048947701
 20
7.5023254821492
 30
0.0
  0
VERTEX
  5
11B
  8
LAYER_1
  6
NEW_LINE4
 62
   250
 10
-104.2489674258406
 20
8.074484468713532
 30
0.0
  0
VERTEX
  5
11C
  8
LAYER_1
  6
NEW_LINE4
 62
   250
 10
-104.5308176824772
 20
8.601789210709795
 30
0.0
  0
VERTEX
  5
11D
  8
LAYER_1
  6
NEW_LINE4
 62
   250
 10
-104.910124317381
 20
9.063975682618977
 30
0.0
  0
VERTEX
  5
11E
  8
LAYER_1
  6
NEW_LINE4
 62
   250
 10
-105.3723107892902
 20
9.443282317522769
 30
0.0
  0
VERTEX
  5
11F
  8
LAYER_1
  6
NEW_LINE4
 62
   250
 10
-105.8996155312865
 20
9.72513257415943
 30
0.0
  0
VERTEX
  5
120
  8
LAYER_1
  6
NEW_LINE4
 62
   250
 10
-106.4717745178508
 20
9.898695105229855
 30
0.0
  0
SEQEND
  5
1B5
  8
LAYER_1
  6
NEW_LINE4
 62
   250
  0
POLYLINE
  5
69
  8
LAYER_1
 62
   250
 66
     1
 10
0.0
 20
0.0
 30
0.0
 70
     1
  0
VERTEX
  5
121
  8
LAYER_1
 62
   250
 10
-46.5668
 20
64.0073
 30
0.0
  0
VERTEX
  5
122
  8
LAYER_1
 62
   250
 10
-46.8789445152258
 20
63.97655644864517
 30
0.0
  0
VERTEX
  5
123
  8
LAYER_1
 62
   250
 10
-47.17909349178414
 20
63.88550725201806
 30
0.0
  0
VERTEX
  5
124
  8
LAYER_1
 62
   250
 10
-47.45571237283136
 20
63.73765137968407
 30
0.0
  0
VERTEX
  5
125
  8
LAYER_1
 62
   250
 10
-47.69817084989847
 20
63.53867084989847
 30
0.0
  0
VERTEX
  5
126
  8
LAYER_1
 62
   250
 10
-47.89715137968408
 20
63.29621237283136
 30
0.0
  0
VERTEX
  5
127
  8
LAYER_1
 62
   250
 10
-48.04500725201806
 20
63.01959349178414
 30
0.0
  0
VERTEX
  5
128
  8
LAYER_1
 62
   250
 10
-48.13605644864517
 20
62.7194445152258
 30
0.0
  0
VERTEX
  5
129
  8
LAYER_1
 62
   250
 10
-48.1668
 20
62.4073
 30
0.0
  0
VERTEX
  5
12A
  8
LAYER_1
 62
   250
 10
-48.13605644864517
 20
62.0951554847742
 30
0.0
  0
VERTEX
  5
12B
  8
LAYER_1
 62
   250
 10
-48.04500725201806
 20
61.79500650821586
 30
0.0
  0
VERTEX
  5
12C
  8
LAYER_1
 62
   250
 10
-47.89715137968408
 20
61.51838762716864
 30
0.0
  0
VERTEX
  5
12D
  8
LAYER_1
 62
   250
 10
-47.69817084989847
 20
61.27592915010153
 30
0.0
  0
VERTEX
  5
12E
  8
LAYER_1
 62
   250
 10
-47.45571237283136
 20
61.07694862031592
 30
0.0
  0
VERTEX
  5
12F
  8
LAYER_1
 62
   250
 10
-47.17909349178414
 20
60.92909274798194
 30
0.0
  0
VERTEX
  5
130
  8
LAYER_1
 62
   250
 10
-46.8789445152258
 20
60.83804355135483
 30
0.0
  0
VERTEX
  5
131
  8
LAYER_1
 62
   250
 10
-46.5668
 20
60.8073
 30
0.0
  0
VERTEX
  5
132
  8
LAYER_1
 62
   250
 10
-46.2546554847742
 20
60.83804355135483
 30
0.0
  0
VERTEX
  5
133
  8
LAYER_1
 62
   250
 10
-45.95450650821586
 20
60.92909274798194
 30
0.0
  0
VERTEX
  5
134
  8
LAYER_1
 62
   250
 10
-45.67788762716864
 20
61.07694862031593
 30
0.0
  0
VERTEX
  5
135
  8
LAYER_1
 62
   250
 10
-45.43542915010152
 20
61.27592915010153
 30
0.0
  0
VERTEX
  5
136
  8
LAYER_1
 62
   250
 10
-45.23644862031593
 20
61.51838762716864
 30
0.0
  0
VERTEX
  5
137
  8
LAYER_1
 62
   250
 10
-45.08859274798194
 20
61.79500650821586
 30
0.0
  0
VERTEX
  5
138
  8
LAYER_1
 62
   250
 10
-44.99754355135483
 20
62.0951554847742
 30
0.0
  0
VERTEX
  5
139
  8
LAYER_1
 62
   250
 10
-44.9668
 20
62.40730000000001
 30
0.0
  0
VERTEX
  5
13A
  8
LAYER_1
 62
   250
 10
-44.99754355135483
 20
62.71944451522581
 30
0.0
  0
VERTEX
  5
13B
  8
LAYER_1
 62
   250
 10
-45.08859274798194
 20
63.01959349178415
 30
0.0
  0
VERTEX
  5
13C
  8
LAYER_1
 62
   250
 10
-45.23644862031593
 20
63.29621237283137
 30
0.0
  0
VERTEX
  5
13D
  8
LAYER_1
 62
   250
 10
-45.43542915010153
 20
63.53867084989848
 30
0.0
  0
VERTEX
  5
13E
  8
LAYER_1
 62
   250
 10
-45.67788762716864
 20
63.73765137968407
 30
0.0
  0
VERTEX
  5
13F
  8
LAYER_1
 62
   250
 10
-45.95450650821586
 20
63.88550725201806
 30
0.0
  0
VERTEX
  5
140
  8
LAYER_1
 62
   250
 10
-46.2546554847742
 20
63.97655644864517
 30
0.0
  0
SEQEND
  5
1B6
  8
LAYER_1
 62
   250
  0
POLYLINE
  5
6A
  8
LAYER_1
 62
   250
 66
     1
 10
0.0
 20
0.0
 30
0.0
 70
     1
  0
VERTEX
  5
141
  8
LAYER_1
 62
   250
 10
-107.0668
 20
64.0073
 30
0.0
  0
VERTEX
  5
142
  8
LAYER_1
 62
   250
 10
-107.3789445152258
 20
63.97655644864517
 30
0.0
  0
VERTEX
  5
143
  8
LAYER_1
 62
   250
 10
-107.6790934917841
 20
63.88550725201806
 30
0.0
  0
VERTEX
  5
144
  8
LAYER_1
 62
   250
 10
-107.9557123728314
 20
63.73765137968407
 30
0.0
  0
VERTEX
  5
145
  8
LAYER_1
 62
   250
 10
-108.1981708498985
 20
63.53867084989847
 30
0.0
  0
VERTEX
  5
146
  8
LAYER_1
 62
   250
 10
-108.3971513796841
 20
63.29621237283136
 30
0.0
  0
VERTEX
  5
147
  8
LAYER_1
 62
   250
 10
-108.5450072520181
 20
63.01959349178414
 30
0.0
  0
VERTEX
  5
148
  8
LAYER_1
 62
   250
 10
-108.6360564486452
 20
62.7194445152258
 30
0.0
  0
VERTEX
  5
149
  8
LAYER_1
 62
   250
 10
-108.6668
 20
62.4073
 30
0.0
  0
VERTEX
  5
14A
  8
LAYER_1
 62
   250
 10
-108.6360564486452
 20
62.0951554847742
 30
0.0
  0
VERTEX
  5
14B
  8
LAYER_1
 62
   250
 10
-108.5450072520181
 20
61.79500650821586
 30
0.0
  0
VERTEX
  5
14C
  8
LAYER_1
 62
   250
 10
-108.3971513796841
 20
61.51838762716864
 30
0.0
  0
VERTEX
  5
14D
  8
LAYER_1
 62
   250
 10
-108.1981708498985
 20
61.27592915010153
 30
0.0
  0
VERTEX
  5
14E
  8
LAYER_1
 62
   250
 10
-107.9557123728314
 20
61.07694862031592
 30
0.0
  0
VERTEX
  5
14F
  8
LAYER_1
 62
   250
 10
-107.6790934917841
 20
60.92909274798194
 30
0.0
  0
VERTEX
  5
150
  8
LAYER_1
 62
   250
 10
-107.3789445152258
 20
60.83804355135483
 30
0.0
  0
VERTEX
  5
151
  8
LAYER_1
 62
   250
 10
-107.0668
 20
60.8073
 30
0.0
  0
VERTEX
  5
152
  8
LAYER_1
 62
   250
 10
-106.7546554847742
 20
60.83804355135483
 30
0.0
  0
VERTEX
  5
153
  8
LAYER_1
 62
   250
 10
-106.4545065082159
 20
60.92909274798194
 30
0.0
  0
VERTEX
  5
154
  8
LAYER_1
 62
   250
 10
-106.1778876271686
 20
61.07694862031593
 30
0.0
  0
VERTEX
  5
155
  8
LAYER_1
 62
   250
 10
-105.9354291501015
 20
61.27592915010153
 30
0.0
  0
VERTEX
  5
156
  8
LAYER_1
 62
   250
 10
-105.7364486203159
 20
61.51838762716864
 30
0.0
  0
VERTEX
  5
157
  8
LAYER_1
 62
   250
 10
-105.5885927479819
 20
61.79500650821586
 30
0.0
  0
VERTEX
  5
158
  8
LAYER_1
 62
   250
 10
-105.4975435513548
 20
62.0951554847742
 30
0.0
  0
VERTEX
  5
159
  8
LAYER_1
 62
   250
 10
-105.4668
 20
62.40730000000001
 30
0.0
  0
VERTEX
  5
15A
  8
LAYER_1
 62
   250
 10
-105.4975435513548
 20
62.71944451522581
 30
0.0
  0
VERTEX
  5
15B
  8
LAYER_1
 62
   250
 10
-105.5885927479819
 20
63.01959349178415
 30
0.0
  0
VERTEX
  5
15C
  8
LAYER_1
 62
   250
 10
-105.7364486203159
 20
63.29621237283137
 30
0.0
  0
VERTEX
  5
15D
  8
LAYER_1
 62
   250
 10
-105.9354291501015
 20
63.53867084989848
 30
0.0
  0
VERTEX
  5
15E
  8
LAYER_1
 62
   250
 10
-106.1778876271686
 20
63.73765137968407
 30
0.0
  0
VERTEX
  5
15F
  8
LAYER_1
 62
   250
 10
-106.4545065082159
 20
63.88550725201806
 30
0.0
  0
VERTEX
  5
160
  8
LAYER_1
 62
   250
 10
-106.7546554847742
 20
63.97655644864517
 30
0.0
  0
SEQEND
  5
1B7
  8
LAYER_1
 62
   250
  0
POLYLINE
  5
6B
  8
LAYER_1
 62
   250
 66
     1
 10
0.0
 20
0.0
 30
0.0
 70
     1
  0
VERTEX
  5
161
  8
LAYER_1
 62
   250
 10
-107.0668
 20
8.5073
 30
0.0
  0
VERTEX
  5
162
  8
LAYER_1
 62
   250
 10
-107.3789445152258
 20
8.47655644864517
 30
0.0
  0
VERTEX
  5
163
  8
LAYER_1
 62
   250
 10
-107.6790934917841
 20
8.385507252018058
 30
0.0
  0
VERTEX
  5
164
  8
LAYER_1
 62
   250
 10
-107.9557123728314
 20
8.237651379684072
 30
0.0
  0
VERTEX
  5
165
  8
LAYER_1
 62
   250
 10
-108.1981708498985
 20
8.038670849898477
 30
0.0
  0
VERTEX
  5
166
  8
LAYER_1
 62
   250
 10
-108.3971513796841
 20
7.796212372831364
 30
0.0
  0
VERTEX
  5
167
  8
LAYER_1
 62
   250
 10
-108.5450072520181
 20
7.519593491784144
 30
0.0
  0
VERTEX
  5
168
  8
LAYER_1
 62
   250
 10
-108.6360564486452
 20
7.219444515225805
 30
0.0
  0
VERTEX
  5
169
  8
LAYER_1
 62
   250
 10
-108.6668
 20
6.9073
 30
0.0
  0
VERTEX
  5
16A
  8
LAYER_1
 62
   250
 10
-108.6360564486452
 20
6.595155484774195
 30
0.0
  0
VERTEX
  5
16B
  8
LAYER_1
 62
   250
 10
-108.5450072520181
 20
6.295006508215857
 30
0.0
  0
VERTEX
  5
16C
  8
LAYER_1
 62
   250
 10
-108.3971513796841
 20
6.018387627168637
 30
0.0
  0
VERTEX
  5
16D
  8
LAYER_1
 62
   250
 10
-108.1981708498985
 20
5.775929150101524
 30
0.0
  0
VERTEX
  5
16E
  8
LAYER_1
 62
   250
 10
-107.9557123728314
 20
5.576948620315927
 30
0.0
  0
VERTEX
  5
16F
  8
LAYER_1
 62
   250
 10
-107.6790934917841
 20
5.429092747981941
 30
0.0
  0
VERTEX
  5
170
  8
LAYER_1
 62
   250
 10
-107.3789445152258
 20
5.338043551354831
 30
0.0
  0
VERTEX
  5
171
  8
LAYER_1
 62
   250
 10
-107.0668
 20
5.3073
 30
0.0
  0
VERTEX
  5
172
  8
LAYER_1
 62
   250
 10
-106.7546554847742
 20
5.338043551354832
 30
0.0
  0
VERTEX
  5
173
  8
LAYER_1
 62
   250
 10
-106.4545065082159
 20
5.429092747981942
 30
0.0
  0
VERTEX
  5
174
  8
LAYER_1
 62
   250
 10
-106.1778876271686
 20
5.576948620315929
 30
0.0
  0
VERTEX
  5
175
  8
LAYER_1
 62
   250
 10
-105.9354291501015
 20
5.775929150101526
 30
0.0
  0
VERTEX
  5
176
  8
LAYER_1
 62
   250
 10
-105.7364486203159
 20
6.018387627168639
 30
0.0
  0
VERTEX
  5
177
  8
LAYER_1
 62
   250
 10
-105.5885927479819
 20
6.295006508215859
 30
0.0
  0
VERTEX
  5
178
  8
LAYER_1
 62
   250
 10
-105.4975435513548
 20
6.595155484774199
 30
0.0
  0
VERTEX
  5
179
  8
LAYER_1
 62
   250
 10
-105.4668
 20
6.907300000000004
 30
0.0
  0
VERTEX
  5
17A
  8
LAYER_1
 62
   250
 10
-105.4975435513548
 20
7.21944451522581
 30
0.0
  0
VERTEX
  5
17B
  8
LAYER_1
 62
   250
 10
-105.5885927479819
 20
7.519593491784148
 30
0.0
  0
VERTEX
  5
17C
  8
LAYER_1
 62
   250
 10
-105.7364486203159
 20
7.796212372831368
 30
0.0
  0
VERTEX
  5
17D
  8
LAYER_1
 62
   250
 10
-105.9354291501015
 20
8.03867084989848
 30
0.0
  0
VERTEX
  5
17E
  8
LAYER_1
 62
   250
 10
-106.1778876271686
 20
8.237651379684076
 30
0.0
  0
VERTEX
  5
17F
  8
LAYER_1
 62
   250
 10
-106.4545065082159
 20
8.385507252018062
 30
0.0
  0
VERTEX
  5
180
  8
LAYER_1
 62
   250
 10
-106.7546554847742
 20
8.47655644864517
 30
0.0
  0
SEQEND
  5
1B8
  8
LAYER_1
 62
   250
  0
POLYLINE
  5
6C
  8
LAYER_1
 62
   250
 66
     1
 10
0.0
 20
0.0
 30
0.0
 70
     1
  0
VERTEX
  5
181
  8
LAYER_1
 62
   250
 10
-46.5668
 20
8.5073
 30
0.0
  0
VERTEX
  5
182
  8
LAYER_1
 62
   250
 10
-46.8789445152258
 20
8.47655644864517
 30
0.0
  0
VERTEX
  5
183
  8
LAYER_1
 62
   250
 10
-47.17909349178414
 20
8.385507252018058
 30
0.0
  0
VERTEX
  5
184
  8
LAYER_1
 62
   250
 10
-47.45571237283136
 20
8.237651379684072
 30
0.0
  0
VERTEX
  5
185
  8
LAYER_1
 62
   250
 10
-47.69817084989847
 20
8.038670849898477
 30
0.0
  0
VERTEX
  5
186
  8
LAYER_1
 62
   250
 10
-47.89715137968408
 20
7.796212372831364
 30
0.0
  0
VERTEX
  5
187
  8
LAYER_1
 62
   250
 10
-48.04500725201806
 20
7.519593491784144
 30
0.0
  0
VERTEX
  5
188
  8
LAYER_1
 62
   250
 10
-48.13605644864517
 20
7.219444515225805
 30
0.0
  0
VERTEX
  5
189
  8
LAYER_1
 62
   250
 10
-48.1668
 20
6.9073
 30
0.0
  0
VERTEX
  5
18A
  8
LAYER_1
 62
   250
 10
-48.13605644864517
 20
6.595155484774195
 30
0.0
  0
VERTEX
  5
18B
  8
LAYER_1
 62
   250
 10
-48.04500725201806
 20
6.295006508215857
 30
0.0
  0
VERTEX
  5
18C
  8
LAYER_1
 62
   250
 10
-47.89715137968408
 20
6.018387627168637
 30
0.0
  0
VERTEX
  5
18D
  8
LAYER_1
 62
   250
 10
-47.69817084989847
 20
5.775929150101524
 30
0.0
  0
VERTEX
  5
18E
  8
LAYER_1
 62
   250
 10
-47.45571237283136
 20
5.576948620315927
 30
0.0
  0
VERTEX
  5
18F
  8
LAYER_1
 62
   250
 10
-47.17909349178414
 20
5.429092747981941
 30
0.0
  0
VERTEX
  5
190
  8
LAYER_1
 62
   250
 10
-46.8789445152258
 20
5.338043551354831
 30
0.0
  0
VERTEX
  5
191
  8
LAYER_1
 62
   250
 10
-46.5668
 20
5.3073
 30
0.0
  0
VERTEX
  5
192
  8
LAYER_1
 62
   250
 10
-46.2546554847742
 20
5.338043551354832
 30
0.0
  0
VERTEX
  5
193
  8
LAYER_1
 62
   250
 10
-45.95450650821586
 20
5.429092747981942
 30
0.0
  0
VERTEX
  5
194
  8
LAYER_1
 62
   250
 10
-45.67788762716864
 20
5.576948620315929
 30
0.0
  0
VERTEX
  5
195
  8
LAYER_1
 62
   250
 10
-45.43542915010152
 20
5.775929150101526
 30
0.0
  0
VERTEX
  5
196
  8
LAYER_1
 62
   250
 10
-45.23644862031593
 20
6.018387627168639
 30
0.0
  0
VERTEX
  5
197
  8
LAYER_1
 62
   250
 10
-45.08859274798194
 20
6.295006508215859
 30
0.0
  0
VERTEX
  5
198
  8
LAYER_1
 62
   250
 10
-44.99754355135483
 20
6.595155484774199
 30
0.0
  0
VERTEX
  5
199
  8
LAYER_1
 62
   250
 10
-44.9668
 20
6.907300000000004
 30
0.0
  0
VERTEX
  5
19A
  8
LAYER_1
 62
   250
 10
-44.99754355135483
 20
7.21944451522581
 30
0.0
  0
VERTEX
  5
19B
  8
LAYER_1
 62
   250
 10
-45.08859274798194
 20
7.519593491784148
 30
0.0
  0
VERTEX
  5
19C
  8
LAYER_1
 62
   250
 10
-45.23644862031593
 20
7.796212372831368
 30
0.0
  0
VERTEX
  5
19D
  8
LAYER_1
 62
   250
 10
-45.43542915010153
 20
8.03867084989848
 30
0.0
  0
VERTEX
  5
19E
  8
LAYER_1
 62
   250
 10
-45.67788762716864
 20
8.237651379684076
 30
0.0
  0
VERTEX
  5
19F
  8
LAYER_1
 62
   250
 10
-45.95450650821586
 20
8.385507252018062
 30
0.0
  0
VERTEX
  5
1A0
  8
LAYER_1
 62
   250
 10
-46.2546554847742
 20
8.47655644864517
 30
0.0
  0
SEQEND
  5
1B9
  8
LAYER_1
 62
   250
  0
POLYLINE
  5
6D
  8
LAYER_1
 62
   250
 66
     1
 10
0.0
 20
0.0
 30
0.0
  0
VERTEX
  5
1A1
  8
LAYER_1
 62
   250
 10
-107.4204
 20
62.0537
 30
0.0
  0
VERTEX
  5
1A2
  8
LAYER_1
 62
   250
 10
-106.7132
 20
62.7609
 30
0.0
  0
SEQEND
  5
1BA
  8
LAYER_1
 62
   250
  0
POLYLINE
  5
6E
  8
LAYER_1
 62
   250
 66
     1
 10
0.0
 20
0.0
 30
0.0
  0
VERTEX
  5
1A3
  8
LAYER_1
 62
   250
 10
-106.7132
 20
62.0537
 30
0.0
  0
VERTEX
  5
1A4
  8
LAYER_1
 62
   250
 10
-107.4204
 20
62.7609
 30
0.0
  0
SEQEND
  5
1BB
  8
LAYER_1
 62
   250
  0
POLYLINE
  5
6F
  8
LAYER_1
 62
   250
 66
     1
 10
0.0
 20
0.0
 30
0.0
  0
VERTEX
  5
1A5
  8
LAYER_1
 62
   250
 10
-46.9204
 20
62.0537
 30
0.0
  0
VERTEX
  5
1A6
  8
LAYER_1
 62
   250
 10
-46.2132
 20
62.7609
 30
0.0
  0
SEQEND
  5
1BC
  8
LAYER_1
 62
   250
  0
POLYLINE
  5
70
  8
LAYER_1
 62
   250
 66
     1
 10
0.0
 20
0.0
 30
0.0
  0
VERTEX
  5
1A7
  8
LAYER_1
 62
   250
 10
-46.2132
 20
62.0537
 30
0.0
  0
VERTEX
  5
1A8
  8
LAYER_1
 62
   250
 10
-46.9204
 20
62.7609
 30
0.0
  0
SEQEND
  5
1BD
  8
LAYER_1
 62
   250
  0
POLYLINE
  5
71
  8
LAYER_1
 62
   250
 66
     1
 10
0.0
 20
0.0
 30
0.0
  0
VERTEX
  5
1A9
  8
LAYER_1
 62
   250
 10
-46.9204
 20
6.5537
 30
0.0
  0
VERTEX
  5
1AA
  8
LAYER_1
 62
   250
 10
-46.2132
 20
7.2609
 30
0.0
  0
SEQEND
  5
1BE
  8
LAYER_1
 62
   250
  0
POLYLINE
  5
72
  8
LAYER_1
 62
   250
 66
     1
 10
0.0
 20
0.0
 30
0.0
  0
VERTEX
  5
1AB
  8
LAYER_1
 62
   250
 10
-46.2132
 20
6.5537
 30
0.0
  0
VERTEX
  5
1AC
  8
LAYER_1
 62
   250
 10
-46.9204
 20
7.2609
 30
0.0
  0
SEQEND
  5
1BF
  8
LAYER_1
 62
   250
  0
POLYLINE
  5
73
  8
LAYER_1
 62
   250
 66
     1
 10
0.0
 20
0.0
 30
0.0
  0
VERTEX
  5
1AD
  8
LAYER_1
 62
   250
 10
-107.4204
 20
6.5537
 30
0.0
  0
VERTEX
  5
1AE
  8
LAYER_1
 62
   250
 10
-106.7132
 20
7.2609
 30
0.0
  0
SEQEND
  5
1C0
  8
LAYER_1
 62
   250
  0
POLYLINE
  5
74
  8
LAYER_1
 62
   250
 66
     1
 10
0.0
 20
0.0
 30
0.0
  0
VERTEX
  5
1AF
  8
LAYER_1
 62
   250
 10
-106.7132
 20
6.5537
 30
0.0
  0
VERTEX
  5
1B0
  8
LAYER_1
 62
   250
 10
-107.4204
 20
7.2609
 30
0.0
  0
SEQEND
  5
1C1
  8
LAYER_1
 62
   250
  0
ENDSEC
  0
EOF
